<?xml version="1.0" encoding="utf-8"?>
<!-- Generator: Adobe Illustrator 26.0.0, SVG Export Plug-In . SVG Version: 6.00 Build 0)  -->
<svg version="1.2" baseProfile="tiny" id="Calque_1"
	 xmlns="http://www.w3.org/2000/svg" xmlns:xlink="http://www.w3.org/1999/xlink" x="0px" y="0px" width="1667.6px"
	 height="1136.3px" viewBox="0 0 1667.6 1136.3" overflow="visible" xml:space="preserve">
<g>
	<path d="M89.9,721.5l-3.1,6.2l214.5,119.6v-2.1c1-2.1,1-3.1,2.1-5.2l1-1l-1-1L89.9,721.5z"/>
	<path d="M345.6,749.3l1-1l-1-1L160,599.8l-5.2,6.2l188.7,147.4C344.6,752.4,345.6,750.4,345.6,749.3z"/>
	<polygon points="39.4,853.5 37.4,860.7 252.8,937 252.8,928.7 251.8,928.7 	"/>
	<path d="M471.4,599.8c1-1,2.1-2.1,3.1-3.1l1-1l-1-1L345.6,399.8l-6.2,4.1l132,196.9V599.8z"/>
	<path d="M401.3,671c1-1,2.1-2.1,3.1-3.1l1-1l-1-2.1L245.6,491.6l-5.2,5.2L400.3,672L401.3,671z"/>
	<path d="M1579.8,723.6l-215.5,117.5c1,2.1,1,3.1,2.1,5.2l1,2.1l2.1-1l213.4-117.5L1579.8,723.6z"/>
	<polygon points="1628.2,853.5 1404.5,932.9 1404.5,941.1 1406.5,940.1 1630.3,860.7 	"/>
	<path d="M1323,753.5l1,1l1-1L1511.7,606l-5.2-6.2L1321,749.3C1322,750.4,1323,752.4,1323,753.5z"/>
	<path d="M1263.2,666.9c1,1,2.1,2.1,3.1,3.1l1,1l1-1l159.8-174.2l-5.2-5.2l-159.8,174.2V666.9z"/>
	<path d="M1195.2,599.8l1,1l1-1l130.9-195.9l-6.2-4.1l-129.9,196.9C1193.1,597.8,1194.2,598.8,1195.2,599.8z"/>
	<path d="M552.9,543.1c1-1,3.1-2.1,4.1-2.1l1-1l-1-1L457,325.6l-6.2,3.1l101,215.5L552.9,543.1z"/>
	<path d="M641.5,501.9c1-1,3.1-1,5.2-2.1l1-1l-1-1l-68-226.8l-7.2,2.1l68,229.9L641.5,501.9z"/>
	<path d="M735.4,477.2c2.1,0,3.1-1,5.2-1h1v-1l-34-236.1l-7.2,1l34,238.2L735.4,477.2z"/>
	<path d="M830.2,467.9h1c1,0,2.1,0,2.1,0c1,0,2.1,0,2.1,0h2.1V326.6h-1h-6.2V467.9z"/>
	<path d="M932.3,477.2L967.3,239h-1l-5.2-1l-34,238.2h1C929.2,476.1,931.2,477.2,932.3,477.2z"/>
	<path d="M1026.1,501.9l69.1-228.9l-1-1l-6.2-2.1l-68,228.9l1,1C1023,500.9,1024,501.9,1026.1,501.9z"/>
	<path d="M1114.8,543.1l102.1-214.5l-1-1l-5.2-2.1l-101,215.5l1,1C1111.7,541.1,1113.7,543.1,1114.8,543.1z"/>
	<path d="M686.9,1023.6c-53.6,42.3-116.5,44.3-176.3,36.1c-2.1,0-3.1-2.1-4.1-4.1c0-2.1,0-4.1,2.1-5.2c34-20.6,65-51.6,92.8-84.5
		c4.1-4.1,9.3-7.2,14.4-8.2h4.1c96.9-13.4,161.9-102.1,162.9-136.1c1-12.4-7.2-15.5-10.3-16.5c-46.4-11.3-90.7,43.3-141.2,107.2
		c-7.2,9.3-15.5,19.6-23.7,29.9c-4.1,4.1-9.3,7.2-14.4,7.2c-56.7,3.1-92.8-10.3-101-39.2c-9.3-29.9,14.4-71.1,49.5-87.6
		c3.1-1,4.1-5.2,3.1-8.2c-2.1-3.1-5.2-4.1-8.2-3.1c-41.2,19.6-66,66-55.7,102.1c6.2,19.6,26.8,49.5,100,48.5c2.1,0,3.1,1,4.1,3.1
		c1,2.1,0,3.1-1,5.2c-29.9,34-62.9,65-97.9,80.4l-3.1,1c-4.1,2.1-9.3,2.1-13.4,2.1c-9.3-2.1-18.6-4.1-26.8-5.2
		c-50.5-10.3-89.7-18.6-108.3,1c-5.2,4.1-5.2,11.3-1,16.5c5.2,8.2,22.7,21.7,57.7,21.7c27.8-2.1,55.7-8.2,80.4-18.6
		c4.1-2.1,9.3-2.1,13.4-1c67,11.3,145.4,15.5,209.3-35.1c3.1-2.1,3.1-5.2,1-8.2C693.1,1022.6,690,1021.5,686.9,1023.6z M627.1,938
		c4.1-5.2,9.3-11.3,13.4-16.5c46.4-56.7,85.6-105.2,121.7-105.2c3.1,0,6.2,0,9.3,1c1,0,1,3.1,1,5.2c-1,23.7-53.6,104.1-140.2,122.7
		c-2.1,0-4.1,0-5.2-2.1C626.1,941.1,626.1,939,627.1,938z M446.7,1064.8c-62.9,19.6-91.8,3.1-97.9-1c-5.2-3.1-5.2-5.2-5.2-7.2
		c0-6.2,15.5-8.2,27.8-8.2c23.7,1,47.4,5.2,69.1,10.3C451.8,1061.7,448.7,1063.8,446.7,1064.8z"/>
	<path d="M1346.7,1018.4c-1-1-2.1-2.1-4.1-2.1s-3.1,0-4.1,1c-1,1-88.7,70.1-160.8,40.2c-14.4-6.2-15.5-14.4-15.5-18.6c0-1,0-1,1-2.1
		c0,0,1,0,2.1,0c14.4,1,29.9-3.1,42.3-11.3c11.3-7.2,12.4-14.4,12.4-19.6c0-8.2-7.2-14.4-15.5-15.5c-13.4-0.8-33.8,11.6-45.1,27.6
		c-1.9-0.3-4.1,0.3-5.4,2.3c0,1-50.5,61.9-97.9,35.1c-6.2-4.1-11.3-10.3-13.4-16.5c-4.1-8.2-9.3-18.6-23.7-16.5
		c-7.2,1-18.6,10.3-28.9,21.7c0,1-1,1-2.1,1c-1,0-1-1-1-2.1c-2.1-10.3-8.2-18.6-18.6-22.7c-7.2-2.1-20.6-4.1-46.4,21.7
		c-1,1-3.1,1-3.1-1c0-1,4.1-19.6,4.1-19.6c1-3.1-1-6.2-4.1-7.2c0,0-0.1,0-0.1,0c-0.3-0.4-0.6-0.7-0.9-1c-1-1-3.1-2.1-4.1-2.1
		c-2.1,0-3.1,1-4.1,2.1c-20.6,21.7-66,52.6-100,52.6c-9.3,0-18.6-3.1-24.7-9.3c-8.2-9.3-2.1-33,0-40.2c1-3.1,0-6.2-3.1-7.2
		c-2.1-1-6.2-1-7.2,2.1c-17.5,25.8-42.3,50.5-50.5,45.4c-3.1-2.1,1-19.6,12.4-39.2c1-3.1,0-6.2-2.1-7.2c-3.1-2.1-6.2-1-8.2,2.1
		c-7.2,13.4-23.7,45.4-8.2,54.6c12.4,7.2,28.9-4.1,42.3-18.6c1-2.1,3.1-2.1,5.2-1c2.1,0,3.1,2.1,4.1,4.1c1,5.2,3.1,10.3,6.2,14.4
		c8.2,9.3,20.6,14.4,33,13.4h1c32.6,0,74-25.5,98.9-47.8l-8.2,34.4c-1,3.1,1,5.2,3.1,7.2c3.1,1,5.2,0,7.2-2.1
		c29.9-38.1,45.4-41.2,51.6-41.2c6.2,1,14.4,13.4,13.4,33c0,3.1,2.1,5.2,4.1,6.2c3.1,1,5.2,0,7.2-2.1c9.3-15.5,27.8-32,33-33
		c5.2-1,7.2,1,11.3,10.3c3.1,9.3,9.3,16.5,17.5,21.7c9.3,5.2,20.6,9.3,32,9.3c29.8,0,56.1-21,70.4-35.1c-0.2,8.7,3.7,20.5,22.4,27.9
		c14.4,6.2,28.9,8.2,44.3,8.2c65,0,125.8-47.4,128.9-50.5c1-1,2.1-2.1,2.1-4.1C1347.8,1021.5,1347.8,1019.5,1346.7,1018.4z
		 M1170.4,1023.6c9.3-12.4,23.7-20.6,33-19.6c2.1,0,4.1,1,4.1,4.1c0,2.1-2.1,5.2-7.2,8.2C1191.1,1022.6,1163.2,1032.9,1170.4,1023.6
		z"/>
	<path d="M833.8,84.2c0.6-11.6,7-20.3,21.6-22.1c-14.6-1.7-21-10.5-21.6-22.1c-0.6,11.6-7,20.3-21.6,22.1
		C826.8,63.8,833.2,72.5,833.8,84.2z"/>
	<path d="M833.8,191.1c2.9-20.9,15.1-30.2,31.5-30.8c-16.3-1.2-28.5-10.5-31.5-30.8c-2.9,20.9-15.1,30.2-31.5,30.8
		C818.7,161.5,831.5,170.2,833.8,191.1z"/>
</g>
</svg>
